<svg width="22" height="22" viewBox="0 0 22 22" fill="none" xmlns="http://www.w3.org/2000/svg">
<path fill-rule="evenodd" clip-rule="evenodd" d="M16.2981 0.0180006C16.5119 -0.00600021 16.7276 -0.00600021 16.9414 0.0180006C17.5154 0.0824523 17.9823 0.34819 18.4133 0.685557C18.8199 1.00384 19.2714 1.44942 19.801 1.97212L19.8738 2.04399C20.4167 2.57964 20.8788 3.03559 21.2087 3.44685C21.5581 3.88229 21.8342 4.3558 21.901 4.94096C21.9258 5.15832 21.9258 5.37779 21.901 5.59514C21.8342 6.1803 21.5581 6.65381 21.2087 7.08925C20.8788 7.50051 20.4167 7.95645 19.8739 8.49208L7.85732 20.3504C7.82999 20.3774 7.80295 20.4041 7.77618 20.4306C7.35791 20.8443 7.00231 21.196 6.55027 21.408C6.46488 21.448 6.37757 21.4839 6.28867 21.5153C5.81803 21.682 5.31788 21.6814 4.72958 21.6807C4.69192 21.6807 4.65389 21.6807 4.61549 21.6807H4.49636C3.75853 21.6807 3.12999 21.6807 2.62161 21.623C2.08338 21.5619 1.56888 21.4266 1.11745 21.0769C0.92531 20.928 0.752768 20.7555 0.603928 20.5634C0.254221 20.1119 0.118904 19.5974 0.0578123 19.0592C0.000107657 18.5508 0.00013257 17.9223 0.000161717 17.1844L0.000163028 17.1343C0.000163028 17.0968 0.000121484 17.0595 8.03564e-05 17.0227C-0.000561824 16.4476 -0.0011075 15.9589 0.157882 15.4983C0.197823 15.3826 0.245096 15.2695 0.299413 15.1598C0.515631 14.723 0.863838 14.3802 1.27362 13.9767C1.29988 13.9508 1.32639 13.9247 1.35313 13.8983L13.4385 1.97208C13.9681 1.4494 14.4196 1.00384 14.8262 0.685557C15.2573 0.34819 15.7241 0.0824523 16.2981 0.0180006ZM16.7405 1.80676C16.6603 1.79775 16.5792 1.79775 16.499 1.80676C16.3905 1.81894 16.2358 1.86808 15.9357 2.10298C15.6204 2.34976 15.2424 2.72081 14.6667 3.28895L13.9712 3.97534L17.9297 7.88176L18.5728 7.24715C19.1624 6.66531 19.5482 6.28262 19.8048 5.96279C20.0494 5.65789 20.1001 5.50065 20.1126 5.3909C20.122 5.30927 20.122 5.22684 20.1126 5.14521C20.1001 5.03546 20.0494 4.87821 19.8048 4.57332C19.5482 4.25349 19.1624 3.8708 18.5728 3.28895C17.9971 2.72081 17.6191 2.34976 17.3038 2.10298C17.0037 1.86808 16.849 1.81894 16.7405 1.80676ZM16.6484 9.1462L12.6899 5.23978L2.61746 15.1795C2.08587 15.7041 1.97752 15.8272 1.91255 15.9584C1.89215 15.9996 1.8744 16.0421 1.8594 16.0855C1.81162 16.2239 1.80016 16.3875 1.80016 17.1343C1.80016 17.936 1.80152 18.4614 1.84633 18.8562C1.88905 19.2326 1.96136 19.3764 2.02691 19.461C2.08281 19.5332 2.14761 19.598 2.21977 19.6539C2.30439 19.7195 2.44822 19.7918 2.82462 19.8345C3.21938 19.8793 3.7448 19.8807 4.54649 19.8807H4.61549C5.37948 19.8807 5.5464 19.8687 5.68785 19.8186C5.72124 19.8067 5.75403 19.7933 5.7861 19.7783C5.92197 19.7145 6.0492 19.6058 6.59299 19.0692L16.6484 9.1462Z" fill="white"/>
<path fill-rule="evenodd" clip-rule="evenodd" d="M16.2981 0.0180006C16.5119 -0.00600021 16.7276 -0.00600021 16.9414 0.0180006C17.5154 0.0824523 17.9823 0.34819 18.4133 0.685557C18.8199 1.00384 19.2714 1.44942 19.801 1.97212L19.8738 2.04399C20.4167 2.57964 20.8788 3.03559 21.2087 3.44685C21.5581 3.88229 21.8342 4.3558 21.901 4.94096C21.9258 5.15832 21.9258 5.37779 21.901 5.59514C21.8342 6.1803 21.5581 6.65381 21.2087 7.08925C20.8788 7.50051 20.4167 7.95645 19.8739 8.49208L7.85732 20.3504C7.82999 20.3774 7.80295 20.4041 7.77618 20.4306C7.35791 20.8443 7.00231 21.196 6.55027 21.408C6.46488 21.448 6.37757 21.4839 6.28867 21.5153C5.81803 21.682 5.31788 21.6814 4.72958 21.6807C4.69192 21.6807 4.65389 21.6807 4.61549 21.6807H4.49636C3.75853 21.6807 3.12999 21.6807 2.62161 21.623C2.08338 21.5619 1.56888 21.4266 1.11745 21.0769C0.92531 20.928 0.752768 20.7555 0.603928 20.5634C0.254221 20.1119 0.118904 19.5974 0.0578123 19.0592C0.000107657 18.5508 0.00013257 17.9223 0.000161717 17.1844L0.000163028 17.1343C0.000163028 17.0968 0.000121484 17.0595 8.03564e-05 17.0227C-0.000561824 16.4476 -0.0011075 15.9589 0.157882 15.4983C0.197823 15.3826 0.245096 15.2695 0.299413 15.1598C0.515631 14.723 0.863838 14.3802 1.27362 13.9767C1.29988 13.9508 1.32639 13.9247 1.35313 13.8983L13.4385 1.97208C13.9681 1.4494 14.4196 1.00384 14.8262 0.685557C15.2573 0.34819 15.7241 0.0824523 16.2981 0.0180006ZM16.7405 1.80676C16.6603 1.79775 16.5792 1.79775 16.499 1.80676C16.3905 1.81894 16.2358 1.86808 15.9357 2.10298C15.6204 2.34976 15.2424 2.72081 14.6667 3.28895L13.9712 3.97534L17.9297 7.88176L18.5728 7.24715C19.1624 6.66531 19.5482 6.28262 19.8048 5.96279C20.0494 5.65789 20.1001 5.50065 20.1126 5.3909C20.122 5.30927 20.122 5.22684 20.1126 5.14521C20.1001 5.03546 20.0494 4.87821 19.8048 4.57332C19.5482 4.25349 19.1624 3.8708 18.5728 3.28895C17.9971 2.72081 17.6191 2.34976 17.3038 2.10298C17.0037 1.86808 16.849 1.81894 16.7405 1.80676ZM16.6484 9.1462L12.6899 5.23978L2.61746 15.1795C2.08587 15.7041 1.97752 15.8272 1.91255 15.9584C1.89215 15.9996 1.8744 16.0421 1.8594 16.0855C1.81162 16.2239 1.80016 16.3875 1.80016 17.1343C1.80016 17.936 1.80152 18.4614 1.84633 18.8562C1.88905 19.2326 1.96136 19.3764 2.02691 19.461C2.08281 19.5332 2.14761 19.598 2.21977 19.6539C2.30439 19.7195 2.44822 19.7918 2.82462 19.8345C3.21938 19.8793 3.7448 19.8807 4.54649 19.8807H4.61549C5.37948 19.8807 5.5464 19.8687 5.68785 19.8186C5.72124 19.8067 5.75403 19.7933 5.7861 19.7783C5.92197 19.7145 6.0492 19.6058 6.59299 19.0692L16.6484 9.1462Z" fill="#1A1A1A" fill-opacity="0.3"/>
</svg>
