<svg width="23" height="23" viewBox="0 0 23 23" fill="none" xmlns="http://www.w3.org/2000/svg">
<path fill-rule="evenodd" clip-rule="evenodd" d="M17.1683 0.393977C17.382 0.369976 17.5978 0.369976 17.8116 0.393977C18.3856 0.458429 18.8524 0.724166 19.2834 1.06153C19.6901 1.37982 20.1416 1.8254 20.6712 2.34809L20.744 2.41996C21.2869 2.95561 21.7489 3.41156 22.0789 3.82283C22.4283 4.25827 22.7044 4.73178 22.7712 5.31694C22.796 5.53429 22.796 5.75377 22.7712 5.97112C22.7044 6.55628 22.4283 7.02979 22.0789 7.46523C21.7489 7.87649 21.2869 8.33243 20.7441 8.86806L8.7275 20.7264C8.70017 20.7534 8.67313 20.7801 8.64636 20.8066C8.22809 21.2203 7.87249 21.572 7.42045 21.784C7.33506 21.824 7.24775 21.8598 7.15885 21.8913C6.68821 22.058 6.18805 22.0574 5.59976 22.0567C5.5621 22.0567 5.52407 22.0566 5.48567 22.0566H5.36654C4.62871 22.0567 4.00017 22.0567 3.49179 21.999C2.95356 21.9379 2.43906 21.8026 1.98763 21.4529C1.79549 21.304 1.62295 21.1315 1.47411 20.9393C1.1244 20.4879 0.989082 19.9734 0.927991 19.4352C0.870286 18.9268 0.870311 18.2982 0.87034 17.5604L0.870341 17.5103C0.870341 17.4727 0.8703 17.4355 0.870259 17.3987C0.869616 16.8236 0.869071 16.3349 1.02806 15.8743C1.068 15.7585 1.11527 15.6455 1.16959 15.5357C1.38581 15.099 1.73402 14.7562 2.1438 14.3527C2.17006 14.3268 2.19656 14.3007 2.22331 14.2743L14.3087 2.34806C14.8383 1.82538 15.2898 1.37981 15.6964 1.06153C16.1274 0.724166 16.5943 0.458429 17.1683 0.393977ZM17.6107 2.18274C17.5304 2.17372 17.4494 2.17372 17.3691 2.18274C17.2606 2.19492 17.106 2.24405 16.8059 2.47896C16.4906 2.72574 16.1126 3.09679 15.5369 3.66493L14.8413 4.35131L18.7999 8.25774L19.443 7.62313C20.0326 7.04128 20.4184 6.65859 20.675 6.33877C20.9196 6.03387 20.9703 5.87662 20.9828 5.76687C20.9921 5.68524 20.9921 5.60282 20.9828 5.52119C20.9703 5.41144 20.9196 5.25419 20.675 4.94929C20.4184 4.62947 20.0326 4.24678 19.443 3.66493C18.8673 3.09679 18.4893 2.72574 18.174 2.47896C17.8739 2.24405 17.7192 2.19492 17.6107 2.18274ZM17.5186 9.52218L13.56 5.61575L3.48764 15.5555C2.95604 16.0801 2.8477 16.2031 2.78273 16.3344C2.76233 16.3756 2.74457 16.418 2.72957 16.4615C2.6818 16.5999 2.67034 16.7634 2.67034 17.5103C2.67034 18.312 2.6717 18.8374 2.71651 19.2322C2.75923 19.6086 2.83154 19.7524 2.89709 19.837C2.95299 19.9092 3.01779 19.974 3.08995 20.0299C3.17457 20.0954 3.3184 20.1677 3.69479 20.2105C4.08956 20.2553 4.61497 20.2566 5.41667 20.2566H5.48567C6.24966 20.2566 6.41657 20.2446 6.55803 20.1945C6.59142 20.1827 6.62421 20.1693 6.65628 20.1542C6.79215 20.0905 6.91938 19.9818 7.46317 19.4452L17.5186 9.52218Z" fill="#4447F4"/>
</svg>
