<svg width="20" height="20" viewBox="0 0 20 20" fill="none" xmlns="http://www.w3.org/2000/svg">
<path fill-rule="evenodd" clip-rule="evenodd" d="M12.7835 0.148054C13.4578 -0.0493512 14.1746 -0.0493512 14.8489 0.148053C15.3515 0.295183 15.7739 0.571807 16.1925 0.919516C16.5954 1.25422 17.0522 1.70498 17.6067 2.25222L17.6629 2.30772C18.2311 2.86842 18.6987 3.32976 19.0457 3.7372C19.4058 4.16005 19.6928 4.58797 19.8452 5.09934C20.0493 5.78431 20.0493 6.51393 19.8452 7.1989C19.6928 7.71026 19.4058 8.13818 19.0457 8.56103C18.6987 8.96847 18.2311 9.42981 17.663 9.9905L16.4061 11.2308C16.0751 11.5574 15.9784 11.6563 15.902 11.7591C15.7555 11.9565 15.6491 12.1808 15.589 12.4192C15.5578 12.5433 15.5424 12.6808 15.499 13.1437L15.4957 13.1783C15.3967 14.2341 15.318 15.0725 15.2136 15.7177C15.1104 16.3558 14.9648 16.9363 14.6568 17.3978C13.7657 18.733 12.1112 19.3355 10.5702 18.886C10.0376 18.7306 9.55278 18.3797 9.06343 17.9574C8.56855 17.5304 7.96923 16.9389 7.21444 16.1941L6.06647 15.0612L1.53216 19.5358C1.17837 19.885 0.608535 19.8812 0.2594 19.5274C-0.0897344 19.1736 -0.0859579 18.6038 0.267835 18.2546L4.78516 13.7968L3.76591 12.791C3.00232 12.0374 2.39666 11.4397 1.95893 10.9464C1.52682 10.4595 1.16626 9.97647 1.00361 9.44471C0.528054 7.88995 1.13046 6.20747 2.48478 5.30789C2.94799 5.00021 3.53318 4.85584 4.17618 4.75381C4.82754 4.65045 5.67493 4.57302 6.74328 4.47541L6.77764 4.47227C7.23015 4.43092 7.36453 4.4163 7.48613 4.38641C7.72235 4.32835 7.94502 4.22489 8.14174 4.0818C8.243 4.00815 8.34084 3.91487 8.66427 3.59571L10.0257 2.2522C10.5802 1.70497 11.037 1.25422 11.4399 0.919516C11.8585 0.571807 12.2809 0.295183 12.7835 0.148054ZM14.3432 1.87555C13.9991 1.77482 13.6333 1.77482 13.2892 1.87555C13.1202 1.92504 12.9176 2.03205 12.59 2.30414C12.2536 2.58364 11.8515 2.97934 11.2621 3.56096L9.92859 4.87691C9.9146 4.89072 9.90079 4.90435 9.88716 4.91781C9.62271 5.17893 9.42483 5.37431 9.20056 5.53745C8.81506 5.81786 8.37869 6.0206 7.91577 6.13439C7.64646 6.20058 7.36952 6.22581 6.99941 6.25952C6.98034 6.26125 6.96101 6.26301 6.94143 6.2648C5.83109 6.36626 5.0435 6.4387 4.45827 6.53156C3.85771 6.62686 3.60195 6.72673 3.48071 6.80726C2.78962 7.26631 2.48222 8.12485 2.72489 8.91823C2.76746 9.05741 2.90171 9.29692 3.3053 9.75175C3.69858 10.195 4.26121 10.7509 5.05482 11.534L8.45403 14.8885C9.23903 15.6631 9.79563 16.2117 10.2394 16.5946C10.6941 16.987 10.9337 17.117 11.0743 17.158C11.8606 17.3874 12.7049 17.0799 13.1596 16.3986C13.2409 16.2768 13.3408 16.0231 13.4367 15.4303C13.5303 14.8517 13.6038 14.0736 13.7069 12.9756C13.7087 12.9555 13.7106 12.9358 13.7124 12.9163C13.7478 12.5377 13.7743 12.2544 13.8436 11.9795C13.9613 11.5122 14.1697 11.0727 14.457 10.6859C14.626 10.4583 14.8286 10.2585 15.0993 9.99151C15.1133 9.97774 15.1274 9.96379 15.1417 9.94965L16.3703 8.73728C16.9738 8.14168 17.3849 7.73486 17.6753 7.39392C17.9583 7.06164 18.0692 6.85603 18.1202 6.68481C18.2244 6.33528 18.2244 5.96296 18.1202 5.61343C18.0692 5.44221 17.9583 5.23659 17.6753 4.90431C17.3849 4.56338 16.9738 4.15656 16.3703 3.56095C15.7809 2.97934 15.3788 2.58364 15.0423 2.30414C14.7148 2.03205 14.5122 1.92504 14.3432 1.87555Z" fill="white"/>
<path fill-rule="evenodd" clip-rule="evenodd" d="M12.7835 0.148054C13.4578 -0.0493512 14.1746 -0.0493512 14.8489 0.148053C15.3515 0.295183 15.7739 0.571807 16.1925 0.919516C16.5954 1.25422 17.0522 1.70498 17.6067 2.25222L17.6629 2.30772C18.2311 2.86842 18.6987 3.32976 19.0457 3.7372C19.4058 4.16005 19.6928 4.58797 19.8452 5.09934C20.0493 5.78431 20.0493 6.51393 19.8452 7.1989C19.6928 7.71026 19.4058 8.13818 19.0457 8.56103C18.6987 8.96847 18.2311 9.42981 17.663 9.9905L16.4061 11.2308C16.0751 11.5574 15.9784 11.6563 15.902 11.7591C15.7555 11.9565 15.6491 12.1808 15.589 12.4192C15.5578 12.5433 15.5424 12.6808 15.499 13.1437L15.4957 13.1783C15.3967 14.2341 15.318 15.0725 15.2136 15.7177C15.1104 16.3558 14.9648 16.9363 14.6568 17.3978C13.7657 18.733 12.1112 19.3355 10.5702 18.886C10.0376 18.7306 9.55278 18.3797 9.06343 17.9574C8.56855 17.5304 7.96923 16.9389 7.21444 16.1941L6.06647 15.0612L1.53216 19.5358C1.17837 19.885 0.608535 19.8812 0.2594 19.5274C-0.0897344 19.1736 -0.0859579 18.6038 0.267835 18.2546L4.78516 13.7968L3.76591 12.791C3.00232 12.0374 2.39666 11.4397 1.95893 10.9464C1.52682 10.4595 1.16626 9.97647 1.00361 9.44471C0.528054 7.88995 1.13046 6.20747 2.48478 5.30789C2.94799 5.00021 3.53318 4.85584 4.17618 4.75381C4.82754 4.65045 5.67493 4.57302 6.74328 4.47541L6.77764 4.47227C7.23015 4.43092 7.36453 4.4163 7.48613 4.38641C7.72235 4.32835 7.94502 4.22489 8.14174 4.0818C8.243 4.00815 8.34084 3.91487 8.66427 3.59571L10.0257 2.2522C10.5802 1.70497 11.037 1.25422 11.4399 0.919516C11.8585 0.571807 12.2809 0.295183 12.7835 0.148054ZM14.3432 1.87555C13.9991 1.77482 13.6333 1.77482 13.2892 1.87555C13.1202 1.92504 12.9176 2.03205 12.59 2.30414C12.2536 2.58364 11.8515 2.97934 11.2621 3.56096L9.92859 4.87691C9.9146 4.89072 9.90079 4.90435 9.88716 4.91781C9.62271 5.17893 9.42483 5.37431 9.20056 5.53745C8.81506 5.81786 8.37869 6.0206 7.91577 6.13439C7.64646 6.20058 7.36952 6.22581 6.99941 6.25952C6.98034 6.26125 6.96101 6.26301 6.94143 6.2648C5.83109 6.36626 5.0435 6.4387 4.45827 6.53156C3.85771 6.62686 3.60195 6.72673 3.48071 6.80726C2.78962 7.26631 2.48222 8.12485 2.72489 8.91823C2.76746 9.05741 2.90171 9.29692 3.3053 9.75175C3.69858 10.195 4.26121 10.7509 5.05482 11.534L8.45403 14.8885C9.23903 15.6631 9.79563 16.2117 10.2394 16.5946C10.6941 16.987 10.9337 17.117 11.0743 17.158C11.8606 17.3874 12.7049 17.0799 13.1596 16.3986C13.2409 16.2768 13.3408 16.0231 13.4367 15.4303C13.5303 14.8517 13.6038 14.0736 13.7069 12.9756C13.7087 12.9555 13.7106 12.9358 13.7124 12.9163C13.7478 12.5377 13.7743 12.2544 13.8436 11.9795C13.9613 11.5122 14.1697 11.0727 14.457 10.6859C14.626 10.4583 14.8286 10.2585 15.0993 9.99151C15.1133 9.97774 15.1274 9.96379 15.1417 9.94965L16.3703 8.73728C16.9738 8.14168 17.3849 7.73486 17.6753 7.39392C17.9583 7.06164 18.0692 6.85603 18.1202 6.68481C18.2244 6.33528 18.2244 5.96296 18.1202 5.61343C18.0692 5.44221 17.9583 5.23659 17.6753 4.90431C17.3849 4.56338 16.9738 4.15656 16.3703 3.56095C15.7809 2.97934 15.3788 2.58364 15.0423 2.30414C14.7148 2.03205 14.5122 1.92504 14.3432 1.87555Z" fill="#1A1A1A" fill-opacity="0.3"/>
</svg>
